<?xml version="1.0" encoding="UTF-8" standalone="no"?>
<!-- Created with Inkscape (http://www.inkscape.org/) -->

<svg
   xmlns:dc="http://purl.org/dc/elements/1.1/"
   xmlns:cc="http://creativecommons.org/ns#"
   xmlns:rdf="http://www.w3.org/1999/02/22-rdf-syntax-ns#"
   xmlns:svg="http://www.w3.org/2000/svg"
   xmlns="http://www.w3.org/2000/svg"
   xmlns:xlink="http://www.w3.org/1999/xlink"
   xmlns:sodipodi="http://sodipodi.sourceforge.net/DTD/sodipodi-0.dtd"
   xmlns:inkscape="http://www.inkscape.org/namespaces/inkscape"
   id="svg2"
   version="1.1"
   inkscape:version="0.48.5 r10040"
   width="1024"
   height="1024"
   xml:space="preserve"
   sodipodi:docname="icon.svg"
   inkscape:export-filename="/Users/hemantasapkota/Desktop/nw.png"
   inkscape:export-xdpi="90"
   inkscape:export-ydpi="90"><metadata
     id="metadata8"><rdf:RDF><cc:Work
         rdf:about=""><dc:format>image/svg+xml</dc:format><dc:type
           rdf:resource="http://purl.org/dc/dcmitype/StillImage" /><dc:title></dc:title></cc:Work></rdf:RDF></metadata><defs
     id="defs6"><linearGradient
       id="linearGradient3832"><stop
         id="stop3834"
         offset="0"
         style="stop-color:#2b495e;stop-opacity:1;" /><stop
         style="stop-color:#080830;stop-opacity:1;"
         offset="0.42278284"
         id="stop3844" /><stop
         style="stop-color:#2b495e;stop-opacity:1;"
         offset="1"
         id="stop3842" /></linearGradient><linearGradient
       inkscape:collect="always"
       id="linearGradient3822"><stop
         style="stop-color:#34495e;stop-opacity:1;"
         offset="0"
         id="stop3824" /><stop
         style="stop-color:#34495e;stop-opacity:0;"
         offset="1"
         id="stop3826" /></linearGradient><clipPath
       clipPathUnits="userSpaceOnUse"
       id="clipPath16"><path
         d="m 0,1024 1024,0 L 1024,0 0,0 0,1024 z"
         id="path18"
         inkscape:connector-curvature="0" /></clipPath><linearGradient
       inkscape:collect="always"
       xlink:href="#linearGradient3822"
       id="linearGradient3828"
       x1="-444.23257"
       y1="-28.389847"
       x2="-444.23257"
       y2="735.00616"
       gradientUnits="userSpaceOnUse" /><linearGradient
       inkscape:collect="always"
       xlink:href="#linearGradient3832"
       id="linearGradient3830"
       gradientUnits="userSpaceOnUse"
       x1="-444.23257"
       y1="-28.389847"
       x2="-444.23257"
       y2="692.48993" /></defs><sodipodi:namedview
     pagecolor="#ffffff"
     bordercolor="#666666"
     borderopacity="1"
     objecttolerance="10"
     gridtolerance="10"
     guidetolerance="10"
     inkscape:pageopacity="0"
     inkscape:pageshadow="2"
     inkscape:window-width="1280"
     inkscape:window-height="607"
     id="namedview4"
     showgrid="false"
     inkscape:zoom="0.25"
     inkscape:cx="285.41038"
     inkscape:cy="553.28363"
     inkscape:window-x="0"
     inkscape:window-y="0"
     inkscape:window-maximized="1"
     inkscape:current-layer="g10"
     showborder="true"
     inkscape:showpageshadow="false" /><g
     inkscape:groupmode="layer"
     id="layer1"
     inkscape:label="Layer"
     style="display:none"><rect
       style="opacity:0.28540027;fill:#34495e;fill-opacity:1;stroke:none"
       id="rect3010"
       width="1024"
       height="1024"
       x="0"
       y="0"
       ry="89.745743" /></g><g
     id="g10"
     inkscape:groupmode="layer"
     inkscape:label="terminal"
     transform="matrix(1.25,0,0,-1.25,0,1024)"
     style="display:inline"><g
       id="g20"
       transform="matrix(0.84460261,0,0,0.8427844,765.6,138.64482)"
       style="fill:url(#linearGradient3828);fill-opacity:1"><path
         d="m 0,0 c 0,-55.229 -44.771,-100 -100,-100 l -643,0 c -55.229,0 -100,44.771 -100,100 l 0,643 c 0,55.229 44.771,100 100,100 l 643,0 C -44.771,743 0,698.229 0,643 L 0,0 z"
         style="fill:url(#linearGradient3830);fill-opacity:1;fill-rule:nonzero;stroke:none"
         id="path22"
         inkscape:connector-curvature="0" /></g><g
       style="display:inline"
       id="g4239"
       transform="matrix(1.6163526,0,0,1.4146728,-1436.3822,-265.87258)"><g
         transform="matrix(1.4002874,0,0,1,-229.74416,82.440678)"
         id="g4203"><rect
           transform="matrix(0,1,1,0,0,0)"
           y="866.61902"
           x="325.14206"
           height="25.87833"
           width="139.78691"
           id="rect3939"
           style="fill:#cccccc;fill-opacity:1;stroke:none"
           ry="12.939165" /><rect
           ry="12.939165"
           style="fill:#cccccc;fill-opacity:1;stroke:none"
           id="rect4193"
           width="226.56657"
           height="25.87833"
           x="281.75223"
           y="904.80206"
           transform="matrix(0,1,1,0,0,0)" /><rect
           transform="matrix(0,1,1,0,0,0)"
           y="942.98505"
           x="318.63358"
           height="25.87833"
           width="152.80386"
           id="rect4195"
           style="fill:#cccccc;fill-opacity:1;stroke:none"
           ry="12.939165" /><rect
           ry="12.939165"
           style="fill:#cccccc;fill-opacity:1;stroke:none"
           id="rect4197"
           width="230.90556"
           height="25.87833"
           x="279.58273"
           y="981.16809"
           transform="matrix(0,1,1,0,0,0)" /><rect
           transform="matrix(0,1,1,0,0,0)"
           y="1019.3511"
           x="349.00644"
           height="25.87833"
           width="92.058105"
           id="rect4199"
           style="fill:#cccccc;fill-opacity:1;stroke:none"
           ry="12.939165" /><rect
           ry="12.939165"
           style="fill:#cccccc;fill-opacity:1;stroke:none"
           id="rect4201"
           width="183.17674"
           height="25.87833"
           x="303.44711"
           y="1057.5341"
           transform="matrix(0,1,1,0,0,0)" /></g><g
         id="g4225"
         transform="matrix(1.4002874,0,0,0.75571494,-216.72721,178.94195)"><rect
           ry="12.939165"
           style="fill:#cccccc;fill-opacity:1;stroke:none"
           id="rect4227"
           width="139.78691"
           height="25.87833"
           x="325.14206"
           y="866.61902"
           transform="matrix(0,1,1,0,0,0)" /><rect
           transform="matrix(0,1,1,0,0,0)"
           y="904.80206"
           x="281.75223"
           height="25.87833"
           width="226.56657"
           id="rect4229"
           style="fill:#cccccc;fill-opacity:1;stroke:none"
           ry="12.939165" /><rect
           ry="12.939165"
           style="fill:#cccccc;fill-opacity:1;stroke:none"
           id="rect4231"
           width="152.80386"
           height="25.87833"
           x="318.63358"
           y="942.98505"
           transform="matrix(0,1,1,0,0,0)" /><rect
           transform="matrix(0,1,1,0,0,0)"
           y="981.16809"
           x="279.58273"
           height="25.87833"
           width="230.90556"
           id="rect4233"
           style="fill:#cccccc;fill-opacity:1;stroke:none"
           ry="12.939165" /><rect
           ry="12.939165"
           style="fill:#cccccc;fill-opacity:1;stroke:none"
           id="rect4235"
           width="92.058105"
           height="25.87833"
           x="349.00644"
           y="1019.3511"
           transform="matrix(0,1,1,0,0,0)" /><rect
           transform="matrix(0,1,1,0,0,0)"
           y="1057.5341"
           x="303.44711"
           height="25.87833"
           width="183.17674"
           id="rect4237"
           style="fill:#cccccc;fill-opacity:1;stroke:none"
           ry="12.939165" /></g></g></g></svg>